<svg version="1.1" xmlns="http://www.w3.org/2000/svg" xmlns:xlink="http://www.w3.org/1999/xlink" width="28px" height="28px" viewBox="0,0,256,256"><g fill="none" fill-rule="nonzero" stroke="none" stroke-width="none" stroke-linecap="none" stroke-linejoin="none" stroke-miterlimit="10" stroke-dasharray="" stroke-dashoffset="0" font-family="none" font-weight="none" font-size="none" text-anchor="none" style="mix-blend-mode: normal"><g transform="scale(5.33333,5.33333)"><path d="M27.517,23.649v-10.473c0,-1.571 -1.176,-2.979 -2.745,-3.061c-1.673,-0.088 -3.057,1.243 -3.057,2.897v20.121c-1.666,-0.935 -4.59,-2.531 -5.724,-3.024c-0.561,-0.245 -1.146,-0.39 -1.74,-0.39c-2.142,0 -2.924,1.322 -3.203,2.141c-0.123,0.363 -0.004,0.761 0.284,1.013c0.845,0.74 10.529,9.355 11.265,10.023c1.908,1.802 3.921,2.993 6.391,2.993h6.341c5.34,0 9.67,-4.329 9.67,-9.67v-4.821c0,-2.268 -1.576,-4.231 -3.791,-4.721z" fill="#ffffff" stroke="none" stroke-width="1" stroke-linecap="butt" stroke-linejoin="miter"></path><path d="M16.811,37.972c0.842,0.751 1.438,1.283 1.602,1.433c1.973,1.863 4.055,3.095 6.609,3.095h6.558c5.523,0 10,-4.477 10,-10v-4.985c0,-2.345 -1.63,-4.375 -3.92,-4.882l-7.235,-1.601" fill="none" stroke="#000000" stroke-width="3" stroke-linecap="round" stroke-linejoin="round"></path><path d="M23.5,19.5v-10.83c0,-1.624 -1.216,-3.081 -2.839,-3.165c-1.73,-0.091 -3.161,1.285 -3.161,2.995v20.808c-1.723,-0.967 -4.746,-2.617 -5.919,-3.127c-0.58,-0.253 -1.185,-0.403 -1.799,-0.403c-2.216,0 -3.024,1.367 -3.312,2.214c-0.128,0.375 -0.004,0.787 0.294,1.048c0.423,0.371 2.992,2.652 5.614,4.985" fill="none" stroke="#000000" stroke-width="3" stroke-linecap="round" stroke-linejoin="round"></path></g></g></svg>
